<?xml version="1.0" encoding="UTF-8"?>
<svg id="_圖層_1" data-name="圖層 1" xmlns="http://www.w3.org/2000/svg" viewBox="0 0 71.5 46.56">
  <defs>
    <style>
      .cls-1 {
        fill: #fff;
        stroke-width: 0px;
      }
    </style>
  </defs>
  <path class="cls-1" d="M69,5H2.5c-1.38,0-2.5-1.12-2.5-2.5S1.12,0,2.5,0h66.5c1.38,0,2.5,1.12,2.5,2.5s-1.12,2.5-2.5,2.5Z"/>
  <path class="cls-1" d="M69,25.78H2.5c-1.38,0-2.5-1.12-2.5-2.5s1.12-2.5,2.5-2.5h66.5c1.38,0,2.5,1.12,2.5,2.5s-1.12,2.5-2.5,2.5Z"/>
  <path class="cls-1" d="M69,46.56H2.5c-1.38,0-2.5-1.12-2.5-2.5s1.12-2.5,2.5-2.5h66.5c1.38,0,2.5,1.12,2.5,2.5s-1.12,2.5-2.5,2.5Z"/>
</svg>